<?xml version="1.0" encoding="UTF-8"?>
<svg xmlns="http://www.w3.org/2000/svg" xmlns:xlink="http://www.w3.org/1999/xlink" width="293pt" height="362pt" viewBox="0 0 293 362" version="1.1">
<g id="surface87284">
<rect x="0" y="0" width="293" height="362" style="fill:rgb(100%,100%,100%);fill-opacity:1;stroke:none;"/>
<path style="fill-rule:evenodd;fill:rgb(100%,100%,100%);fill-opacity:1;stroke-width:0.1;stroke-linecap:butt;stroke-linejoin:miter;stroke:rgb(0%,0%,0%);stroke-opacity:1;stroke-miterlimit:10;" d="M 5.964287 9 L 8.535772 9 L 10.25003 12 L 8.535772 15 L 5.964287 15 L 4.25003 12 Z M 5.964287 9 " transform="matrix(20,0,0,20,1.151751,-179)"/>
<path style="fill:none;stroke-width:0.1;stroke-linecap:butt;stroke-linejoin:miter;stroke:rgb(0%,0%,0%);stroke-opacity:1;stroke-miterlimit:10;" d="M 5.964287 9 L 8.535772 9 L 10.25003 12 L 8.535772 15 L 5.964287 15 L 4.25003 12 Z M 5.964287 9 " transform="matrix(20,0,0,20,1.151751,-179)"/>
<path style="fill-rule:evenodd;fill:rgb(100%,100%,100%);fill-opacity:1;stroke-width:0.1;stroke-linecap:butt;stroke-linejoin:miter;stroke:rgb(0%,0%,0%);stroke-opacity:1;stroke-miterlimit:10;" d="M 5.964287 15 L 8.535772 15 L 10.25003 18 L 8.535772 21 L 5.964287 21 L 4.25003 18 Z M 5.964287 15 " transform="matrix(20,0,0,20,1.151751,-179)"/>
<path style="fill:none;stroke-width:0.1;stroke-linecap:butt;stroke-linejoin:miter;stroke:rgb(0%,0%,0%);stroke-opacity:1;stroke-miterlimit:10;" d="M 5.964287 15 L 8.535772 15 L 10.25003 18 L 8.535772 21 L 5.964287 21 L 4.25003 18 Z M 5.964287 15 " transform="matrix(20,0,0,20,1.151751,-179)"/>
<path style="fill-rule:evenodd;fill:rgb(100%,100%,100%);fill-opacity:1;stroke-width:0.1;stroke-linecap:butt;stroke-linejoin:miter;stroke:rgb(0%,0%,0%);stroke-opacity:1;stroke-miterlimit:10;" d="M 1.714287 12 L 4.285772 12 L 6.00003 15 L 4.285772 18 L 1.714287 18 L 0.0000296322 15 Z M 1.714287 12 " transform="matrix(20,0,0,20,1.151751,-179)"/>
<path style="fill:none;stroke-width:0.1;stroke-linecap:butt;stroke-linejoin:miter;stroke:rgb(0%,0%,0%);stroke-opacity:1;stroke-miterlimit:10;" d="M 1.714287 12 L 4.285772 12 L 6.00003 15 L 4.285772 18 L 1.714287 18 L 0.0000296322 15 Z M 1.714287 12 " transform="matrix(20,0,0,20,1.151751,-179)"/>
<path style="fill-rule:evenodd;fill:rgb(100%,100%,100%);fill-opacity:1;stroke-width:0.1;stroke-linecap:butt;stroke-linejoin:miter;stroke:rgb(0%,0%,0%);stroke-opacity:1;stroke-miterlimit:10;" d="M 10.214287 12 L 12.785772 12 L 14.50003 15 L 12.785772 18 L 10.214287 18 L 8.50003 15 Z M 10.214287 12 " transform="matrix(20,0,0,20,1.151751,-179)"/>
<path style="fill:none;stroke-width:0.1;stroke-linecap:butt;stroke-linejoin:miter;stroke:rgb(0%,0%,0%);stroke-opacity:1;stroke-miterlimit:10;" d="M 10.214287 12 L 12.785772 12 L 14.50003 15 L 12.785772 18 L 10.214287 18 L 8.50003 15 Z M 10.214287 12 " transform="matrix(20,0,0,20,1.151751,-179)"/>
<path style="fill-rule:evenodd;fill:rgb(100%,100%,100%);fill-opacity:1;stroke-width:0.1;stroke-linecap:butt;stroke-linejoin:miter;stroke:rgb(0%,0%,0%);stroke-opacity:1;stroke-miterlimit:10;" d="M 10.264287 18 L 12.835772 18 L 14.55003 21 L 12.835772 24 L 10.264287 24 L 8.55003 21 Z M 10.264287 18 " transform="matrix(20,0,0,20,1.151751,-179)"/>
<path style="fill:none;stroke-width:0.1;stroke-linecap:butt;stroke-linejoin:miter;stroke:rgb(0%,0%,0%);stroke-opacity:1;stroke-miterlimit:10;" d="M 10.264287 18 L 12.835772 18 L 14.55003 21 L 12.835772 24 L 10.264287 24 L 8.55003 21 Z M 10.264287 18 " transform="matrix(20,0,0,20,1.151751,-179)"/>
<path style="fill-rule:evenodd;fill:rgb(100%,100%,100%);fill-opacity:1;stroke-width:0.1;stroke-linecap:butt;stroke-linejoin:miter;stroke:rgb(0%,0%,0%);stroke-opacity:1;stroke-miterlimit:10;" d="M 1.714287 18 L 4.285772 18 L 6.00003 21 L 4.285772 24 L 1.714287 24 L 0.0000296322 21 Z M 1.714287 18 " transform="matrix(20,0,0,20,1.151751,-179)"/>
<path style="fill:none;stroke-width:0.1;stroke-linecap:butt;stroke-linejoin:miter;stroke:rgb(0%,0%,0%);stroke-opacity:1;stroke-miterlimit:10;" d="M 1.714287 18 L 4.285772 18 L 6.00003 21 L 4.285772 24 L 1.714287 24 L 0.0000296322 21 Z M 1.714287 18 " transform="matrix(20,0,0,20,1.151751,-179)"/>
<path style="fill-rule:evenodd;fill:rgb(100%,100%,100%);fill-opacity:1;stroke-width:0.1;stroke-linecap:butt;stroke-linejoin:miter;stroke:rgb(0%,0%,0%);stroke-opacity:1;stroke-miterlimit:10;" d="M 5.964287 21 L 8.535772 21 L 10.25003 24 L 8.535772 27 L 5.964287 27 L 4.25003 24 Z M 5.964287 21 " transform="matrix(20,0,0,20,1.151751,-179)"/>
<path style="fill:none;stroke-width:0.1;stroke-linecap:butt;stroke-linejoin:miter;stroke:rgb(0%,0%,0%);stroke-opacity:1;stroke-miterlimit:10;" d="M 5.964287 21 L 8.535772 21 L 10.25003 24 L 8.535772 27 L 5.964287 27 L 4.25003 24 Z M 5.964287 21 " transform="matrix(20,0,0,20,1.151751,-179)"/>
</g>
</svg>
